<svg width="20" height="20" viewBox="0 0 20 20" fill="none" xmlns="http://www.w3.org/2000/svg">
<g clip-path="url(#clip0_1496_7)">
<path d="M18.0076 11.3013L18.1986 9.27194C18.3486 7.67809 18.4236 6.88116 18.1509 6.55173C18.0034 6.37353 17.8029 6.26434 17.5884 6.24551C17.192 6.21069 16.6942 6.77742 15.6985 7.9109C15.1836 8.49708 14.9262 8.79017 14.6389 8.83556C14.4798 8.86071 14.3176 8.83486 14.1707 8.76091C13.9055 8.62744 13.7287 8.2651 13.375 7.54043L11.511 3.72072C10.8427 2.35135 10.5086 1.66667 10.0001 1.66667C9.49158 1.66667 9.15745 2.35135 8.48919 3.72072L6.62514 7.54043C6.2715 8.2651 6.09467 8.62744 5.82946 8.76091C5.68251 8.83486 5.52037 8.86071 5.36123 8.83556C5.07401 8.79017 4.81655 8.49708 4.30164 7.9109C3.30598 6.77742 2.80815 6.21069 2.41174 6.24551C2.1973 6.26434 1.99673 6.37353 1.84924 6.55173C1.57658 6.88116 1.65158 7.67809 1.80159 9.27193L1.99258 11.3013C2.30729 14.6451 2.46465 16.3171 3.45016 17.3252C4.43567 18.3333 5.91272 18.3333 8.86681 18.3333H11.1333C14.0874 18.3333 15.5645 18.3333 16.55 17.3252C17.5355 16.3171 17.6929 14.6451 18.0076 11.3013Z" stroke="black" stroke-width="1.5"/>
<path d="M7.5 15H12.5" stroke="black" stroke-width="1.5" stroke-linecap="round"/>
</g>
<defs>
<clipPath id="clip0_1496_7">
<rect width="20" height="20" fill="white"/>
</clipPath>
</defs>
</svg>
