<svg width="100" height="25" viewBox="0 0 100 25" fill="none" xmlns="http://www.w3.org/2000/svg">
<path d="M94.0518 16.8501C92.3319 16.8501 90.9105 16.3001 89.7877 15.2001C88.6888 14.0751 88.1394 12.6251 88.1394 10.8501C88.1394 9.0751 88.6888 7.6376 89.7877 6.5376C90.8866 5.4126 92.308 4.8501 94.0518 4.8501C95.8196 4.8501 97.2529 5.4001 98.3518 6.5001C99.4506 7.6001 100 9.0501 100 10.8501C100 12.6251 99.4506 14.0751 98.3518 15.2001C97.2529 16.3001 95.8196 16.8501 94.0518 16.8501Z" fill="#006FEE"/>
<path d="M82.7557 1.0125L73.7974 12.3L82.7557 23.5875V24.6H75.4099L69.4617 16.9125L63.4776 24.6H56.1318V23.5875L65.0901 12.3L56.1318 1.0125V0H63.4776L69.4617 7.6875L75.4099 0H82.7557V1.0125Z" fill="#006FEE"/>
<path d="M28.2671 6.32515V0.400146H52.0243V6.32515H43.3169V25.0001H36.9745V6.32515H28.2671Z" fill="#006FEE"/>
<path d="M20.7114 12.4375C21.7625 13.0125 22.5628 13.75 23.1122 14.65C23.6616 15.55 23.9364 16.6 23.9364 17.8V18.175C23.9364 20.3 23.1361 21.975 21.5356 23.2C19.9589 24.4 17.7731 25 14.9781 25H0V0.400024H14.2615C17.1042 0.400024 19.302 0.975024 20.8547 2.12502C22.4075 3.27502 23.1839 4.91252 23.1839 7.03752V7.41252C23.1839 9.56252 22.3597 11.2375 20.7114 12.4375ZM6.34242 6.10003V10H14.2615C15.1454 10 15.7903 9.86252 16.1965 9.58752C16.6264 9.28752 16.8414 8.83752 16.8414 8.23752V7.86252C16.8414 6.68752 15.9815 6.10003 14.2615 6.10003H6.34242ZM17.4506 17.05C17.4506 15.825 16.5787 15.2125 14.8348 15.2125H6.34242V19.3H14.8348C16.5787 19.3 17.4506 18.675 17.4506 17.425V17.05Z" fill="#006FEE"/>
</svg>
