<svg width="120" height="120" viewBox="0 0 120 120" fill="none" xmlns="http://www.w3.org/2000/svg">
<rect width="120" height="120" rx="60" fill="#D4D4D8"/>
<path d="M50.7832 50.1147C50.7832 45.166 54.8064 41.1428 59.7551 41.1428C64.7037 41.1428 68.7269 45.166 68.7269 50.1147C68.708 54.9689 64.9115 58.8976 60.0762 59.0676H59.9439C59.8306 59.0487 59.6795 59.0487 59.5284 59.0676C54.5797 58.8976 50.7832 54.9689 50.7832 50.1147Z" fill="#71717A"/>
<path d="M50.1785 64.0897C55.486 60.5765 64.08 60.5765 69.3498 64.0897C71.7297 65.6763 73.033 67.8296 73.0519 70.1528C73.0519 72.4949 71.7297 74.6482 69.3498 76.2536C66.7055 78.0291 63.2301 78.9169 59.7547 78.9169C56.2793 78.9169 52.8039 78.0291 50.1596 76.2536C47.7797 74.667 46.4575 72.5138 46.4575 70.1906C46.4575 67.8673 47.7797 65.6952 50.1785 64.0897Z" fill="#71717A"/>
</svg>
