<svg width="20" height="20" viewBox="0 0 20 20" fill="none" xmlns="http://www.w3.org/2000/svg">
<path d="M16.9263 10.5394L17.3576 8.92951C17.8612 7.05027 18.1129 6.11066 17.9233 5.29751C17.7736 4.65546 17.4369 4.07222 16.9557 3.62155C16.3463 3.05078 15.4067 2.79901 13.5275 2.29547C11.6482 1.79193 10.7086 1.54016 9.89547 1.72976C9.25342 1.87947 8.67019 2.2162 8.21951 2.69738C7.73083 3.21914 7.47599 3.98297 7.09676 5.37133C7.03307 5.60451 6.96587 5.8553 6.89346 6.12552L6.89343 6.12564L6.46207 7.73551C5.95853 9.61475 5.70676 10.5544 5.89636 11.3675C6.04606 12.0096 6.3828 12.5928 6.86397 13.0435C7.47338 13.6142 8.41299 13.866 10.2922 14.3695L10.2922 14.3695C11.9861 14.8234 12.9165 15.0727 13.6791 14.9787C13.7625 14.9684 13.844 14.954 13.9242 14.9353C14.5663 14.7856 15.1495 14.4488 15.6002 13.9676C16.171 13.3582 16.4227 12.4186 16.9263 10.5394Z" stroke="#006FEE" stroke-width="1.5"/>
<path d="M13.6792 14.9784C13.5055 15.5105 13.2 15.9918 12.7892 16.3766C12.1798 16.9473 11.2402 17.1991 9.36096 17.7026C7.48173 18.2062 6.54211 18.4579 5.72897 18.2683C5.08692 18.1186 4.50368 17.7819 4.05301 17.3007C3.48224 16.6913 3.23047 15.7517 2.72693 13.8725L2.29556 12.2626C1.79203 10.3834 1.54026 9.44375 1.72985 8.6306C1.87956 7.98856 2.21629 7.40532 2.69747 6.95464C3.30688 6.38387 4.24649 6.13211 6.12573 5.62857C6.48125 5.5333 6.80315 5.44705 7.09692 5.37109" stroke="#006FEE" stroke-width="1.5"/>
<path d="M9.81396 8.33334L13.8387 9.41176" stroke="#006FEE" stroke-width="1.5" stroke-linecap="round"/>
<path d="M9.16675 10.7481L11.5816 11.3951" stroke="#006FEE" stroke-width="1.5" stroke-linecap="round"/>
</svg>
